<?xml version="1.0" encoding="UTF-8" standalone="no"?><!DOCTYPE svg PUBLIC "-//W3C//DTD SVG 1.1//EN" "http://www.w3.org/Graphics/SVG/1.1/DTD/svg11.dtd"><svg width="100%" height="100%" viewBox="0 0 300 300" version="1.1" xmlns="http://www.w3.org/2000/svg" xmlns:xlink="http://www.w3.org/1999/xlink" xml:space="preserve" xmlns:serif="http://www.serif.com/" style="fill-rule:evenodd;clip-rule:evenodd;stroke-linecap:round;stroke-linejoin:round;stroke-miterlimit:1.5;"><g><g><g><path d="M108.473,189.601l13.708,-12.639l-4.838,-42.549l12.095,10.532l33.464,-34.124l2.419,18.115l26.206,-18.537l-13.708,24.856l10.886,-4.634l-16.127,52.239l-64.105,6.741Z" style="fill:#092652;stroke:#092652;stroke-width:1px;"/><g><ellipse cx="154.337" cy="142.732" rx="2.535" ry="2.421" style="fill:#fff;"/><path d="M146.032,144.615c7.56,5.249 15.658,5.507 24.302,0.718c-0.622,-1.698 -0.452,-2.458 1.224,-1.435l1.399,2.332c0.623,2.013 -0.117,1.849 -1.574,0.538c-10.49,5.381 -18.894,4.539 -26.75,-0.897c-1.742,1.088 -2.448,1.147 -1.398,-0.538l1.398,-1.794c1.207,-0.719 1.74,-0.457 1.399,1.076Z" style="fill:#fff;"/><ellipse cx="161.855" cy="142.732" rx="2.535" ry="2.421" style="fill:#fff;"/></g></g></g></g></svg>