<svg width="113" height="24" viewBox="0 0 113 24" fill="none" xmlns="http://www.w3.org/2000/svg">
<path d="M37.1968 7.106V12.902L42.0478 7.106H45.3028L40.3888 12.881L45.4918 20H42.2368L38.4148 14.729L37.1968 16.178V20H34.5088V7.106H37.1968ZM51.9131 7.106H54.5801L59.5151 20H56.7851L55.6301 16.892H50.8001L49.6661 20H46.9781L51.9131 7.106ZM53.2151 10.34L51.6401 14.624H54.7901L53.2151 10.34ZM71.5681 17.627V20H61.6141V18.047L68.0821 9.458H61.7191V7.106H71.4841V9.038L65.0581 17.627H71.5681ZM84.141 17.627V20H74.187V18.047L80.655 9.458H74.292V7.106H84.057V9.038L77.631 17.627H84.141ZM91.1699 7.106H93.8369L98.7719 20H96.0419L94.8869 16.892H90.0569L88.9229 20H86.2349L91.1699 7.106ZM92.4719 10.34L90.8969 14.624H94.0469L92.4719 10.34ZM109.796 7.106H112.484V20H109.796V14.582H103.958V20H101.27V7.106H103.958V12.23H109.796V7.106Z" fill="black"/>
<g clip-path="url(#clip0_0_1)">
<path d="M25.1141 0L17.1883 5.37931L16.3607 0.159151L6.39788 10.504L2.57825 7.19363L4.1061 20.1167L0 24L19.4483 22.0265L24.2228 6.01592L21.2308 7.35279L25.1141 0ZM13.8143 10.5995C13.4324 10.5995 13.1141 10.2812 13.1141 9.8992C13.1141 9.51724 13.4324 9.19894 13.8143 9.19894C14.1963 9.19894 14.5464 9.51724 14.5464 9.8992C14.5464 10.2812 14.2281 10.5995 13.8143 10.5995ZM16.0743 10.5995C15.6923 10.5995 15.374 10.2812 15.374 9.8992C15.374 9.51724 15.6923 9.19894 16.0743 9.19894C16.4562 9.19894 16.7745 9.51724 16.7745 9.8992C16.7745 10.2812 16.4562 10.5995 16.0743 10.5995Z" fill="black"/>
<path d="M11.0132 12.309C12.1272 13.0411 13.4641 13.4867 14.9283 13.4867C16.3925 13.4867 17.7294 13.0411 18.8434 12.309" stroke="white" stroke-miterlimit="10" stroke-linecap="round"/>
<path d="M11.3634 11.9589L10.7268 12.5636" stroke="white" stroke-miterlimit="10" stroke-linecap="round"/>
<path d="M19.13 12.5636L18.4934 11.9589" stroke="white" stroke-miterlimit="10" stroke-linecap="round"/>
</g>
<defs>
<clipPath id="clip0_0_1">
<rect width="25.1141" height="24" fill="white"/>
</clipPath>
</defs>
</svg>
