<svg
  width="26"
  height="24"
  viewBox="0 0 26 24"
  fill="none"
  xmlns="http://www.w3.org/2000/svg"
>
<g clip-path="url(#clip0_177_3625)">
<path
      d="M25.1141 0L17.1883 5.37931L16.3607 0.159151L6.39788 10.504L2.57825 7.19363L4.1061 20.1167L0 24L19.4483 22.0265L24.2228 6.01592L21.2308 7.35279L25.1141 0ZM13.8143 10.5995C13.4324 10.5995 13.1141 10.2812 13.1141 9.8992C13.1141 9.51724 13.4324 9.19894 13.8143 9.19894C14.1963 9.19894 14.5464 9.51724 14.5464 9.8992C14.5464 10.2812 14.2281 10.5995 13.8143 10.5995ZM16.0743 10.5995C15.6923 10.5995 15.374 10.2812 15.374 9.8992C15.374 9.51724 15.6923 9.19894 16.0743 9.19894C16.4562 9.19894 16.7745 9.51724 16.7745 9.8992C16.7745 10.2812 16.4562 10.5995 16.0743 10.5995Z"
      fill="black"
    />
<path
      d="M11.0132 12.3091C12.1272 13.0412 13.4641 13.4868 14.9283 13.4868C16.3925 13.4868 17.7294 13.0412 18.8434 12.3091"
      stroke="white"
      stroke-miterlimit="10"
      stroke-linecap="round"
    />
<path
      d="M11.3634 11.959L10.7268 12.5638"
      stroke="white"
      stroke-miterlimit="10"
      stroke-linecap="round"
    />
<path
      d="M19.1299 12.5638L18.4933 11.959"
      stroke="white"
      stroke-miterlimit="10"
      stroke-linecap="round"
    />
</g>
<defs>
<clipPath id="clip0_177_3625">
<rect width="25.1141" height="24" fill="white" />
</clipPath>
</defs>
</svg>
