<svg width="20" height="19" viewBox="0 0 20 19" fill="none" xmlns="http://www.w3.org/2000/svg">
<g clip-path="url(#clip0_489_7681)">
<path d="M19.273 14.6443C19.2401 14.7758 19.1908 14.8991 19.125 15.0143C18.5988 15.8776 17.9492 16.6669 17.201 17.3576C16.979 17.5385 16.7406 17.7029 16.5021 17.8509L15.943 17.8838C15.6717 17.8509 15.4003 17.8263 15.129 17.7769C13.9286 17.5303 12.7774 17.0863 11.725 16.4696C9.91611 15.45 8.28811 14.1838 6.73411 12.8189C5.31167 11.5938 4.01256 10.2371 2.845 8.76536C2.04744 7.72936 1.34033 6.63581 0.921 5.37781C0.814111 5.06536 0.748333 4.75292 0.657889 4.44048L0.625 3.88136C0.863444 3.17425 1.34033 2.62336 1.84189 2.10536C2.21189 1.71892 2.59833 1.35714 2.993 0.995364C3.32189 0.682919 3.77411 0.559586 4.21811 0.65003C4.46478 0.691141 4.695 0.822697 4.843 1.02003C5.64878 2.08892 6.43811 3.15781 7.27678 4.21025C7.62211 4.62959 7.70433 5.20514 7.48233 5.7067C7.38367 5.97803 7.25211 6.23292 7.12878 6.48781C6.989 6.79203 6.84922 7.08803 6.693 7.38403C6.62722 7.47448 6.64367 7.60603 6.72589 7.67181C7.285 8.24736 7.81944 8.84759 8.41144 9.39848C9.48855 10.4509 10.6643 11.4047 11.9059 12.2516C12.0128 12.3503 12.1772 12.3503 12.2923 12.2516C12.7446 11.9391 13.205 11.6431 13.6737 11.3554C14.0026 11.1251 14.3972 11.0265 14.7919 11.0758C14.9152 11.0923 15.0303 11.1334 15.1372 11.1991C16.3706 11.9063 17.6039 12.6134 18.8372 13.3205C19.2319 13.5425 19.421 14.1098 19.2812 14.636L19.273 14.6443Z" stroke="black" stroke-width="1.5" stroke-miterlimit="10"/>
</g>
<defs>
<clipPath id="clip0_489_7681">
<rect width="19.9389" height="18.5" fill="white"/>
</clipPath>
</defs>
</svg>
