<svg width="9" height="13" viewBox="0 0 9 13" fill="none" xmlns="http://www.w3.org/2000/svg">
<path d="M4.33333 11L3.92193 11.2842L4.33333 11.8798L4.74474 11.2842L4.33333 11ZM4.33333 11C4.74474 11.2842 4.74477 11.2841 4.74482 11.284L4.74499 11.2838L4.74554 11.283L4.74755 11.2801L4.75511 11.2691L4.78384 11.2271C4.80884 11.1904 4.84526 11.1368 4.89149 11.068C4.98392 10.9306 5.11562 10.7326 5.2735 10.4895C5.58898 10.0037 6.01038 9.33552 6.4325 8.60783C6.85367 7.88179 7.28054 7.08801 7.6036 6.35268C7.91764 5.63788 8.16667 4.90708 8.16667 4.33333C8.16667 2.21645 6.45022 0.5 4.33333 0.5C2.21645 0.5 0.5 2.21645 0.5 4.33333C0.5 4.90708 0.749022 5.63788 1.06307 6.35268C1.38613 7.08801 1.813 7.88179 2.23417 8.60783C2.65628 9.33552 3.07768 10.0037 3.39317 10.4895C3.55105 10.7326 3.68275 10.9306 3.77518 11.068C3.8214 11.1368 3.85783 11.1904 3.88283 11.2271L3.91156 11.2691L3.91911 11.2801L3.92112 11.283L3.92168 11.2838L3.92184 11.284C3.92189 11.2841 3.92193 11.2842 4.33333 11ZM4.33333 4.94444C3.99466 4.94444 3.72222 4.67201 3.72222 4.33333C3.72222 3.99466 3.99466 3.72222 4.33333 3.72222C4.67201 3.72222 4.94445 3.99466 4.94445 4.33333C4.94445 4.67201 4.67201 4.94444 4.33333 4.94444Z" stroke="#AAAAAA"/>
</svg>
