<svg width="18" height="15" viewBox="0 0 18 15" fill="none" xmlns="http://www.w3.org/2000/svg">
<g clip-path="url(#clip0_877_2079)">
<path d="M8.54175 9.16602V14.9993" stroke="black" stroke-width="1.5" stroke-miterlimit="10"/>
<path d="M8.54175 5.83333V0" stroke="black" stroke-width="1.5" stroke-miterlimit="10"/>
<path d="M8.54167 9.16732C9.46214 9.16732 10.2083 8.42113 10.2083 7.50065C10.2083 6.58018 9.46214 5.83398 8.54167 5.83398C7.62119 5.83398 6.875 6.58018 6.875 7.50065C6.875 8.42113 7.62119 9.16732 8.54167 9.16732Z" stroke="black" stroke-width="1.5" stroke-miterlimit="10"/>
<path d="M2.29175 11.666V14.9993" stroke="black" stroke-width="1.5" stroke-miterlimit="10"/>
<path d="M2.29175 8.33333V0" stroke="black" stroke-width="1.5" stroke-miterlimit="10"/>
<path d="M2.29167 11.6673C3.21214 11.6673 3.95833 10.9211 3.95833 10.0007C3.95833 9.08018 3.21214 8.33398 2.29167 8.33398C1.37119 8.33398 0.625 9.08018 0.625 10.0007C0.625 10.9211 1.37119 11.6673 2.29167 11.6673Z" stroke="black" stroke-width="1.5" stroke-miterlimit="10"/>
<path d="M14.7917 6.66602V14.9993" stroke="black" stroke-width="1.5" stroke-miterlimit="10"/>
<path d="M14.7917 3.33333V0" stroke="black" stroke-width="1.5" stroke-miterlimit="10"/>
<path d="M14.7917 6.66732C15.7121 6.66732 16.4583 5.92113 16.4583 5.00065C16.4583 4.08018 15.7121 3.33398 14.7917 3.33398C13.8712 3.33398 13.125 4.08018 13.125 5.00065C13.125 5.92113 13.8712 6.66732 14.7917 6.66732Z" stroke="black" stroke-width="1.5" stroke-miterlimit="10"/>
</g>
<defs>
<clipPath id="clip0_877_2079">
<rect width="17.0833" height="15" fill="white"/>
</clipPath>
</defs>
</svg>
