<svg
  width="268"
  height="170"
  viewBox="0 0 268 170"
  fill="none"
  xmlns="http://www.w3.org/2000/svg"
>
<path
    d="M9.53196 125.792V145.664L26.164 125.792H37.324L20.476 145.592L37.972 170H26.812L13.708 151.928L9.53196 156.896V170H0.315963V125.792H9.53196ZM59.9877 125.792H69.1317L86.0517 170H76.6917L72.7317 159.344H56.1717L52.2837 170H43.0677L59.9877 125.792ZM64.4517 136.88L59.0517 151.568H69.8517L64.4517 136.88ZM127.376 161.864V170H93.2483V163.304L115.424 133.856H93.6083V125.792H127.088V132.416L105.056 161.864H127.376ZM170.483 161.864V170H136.355V163.304L158.531 133.856H136.715V125.792H170.195V132.416L148.163 161.864H170.483ZM194.583 125.792H203.727L220.647 170H211.287L207.327 159.344H190.767L186.879 170H177.663L194.583 125.792ZM199.047 136.88L193.647 151.568H204.447L199.047 136.88ZM258.443 125.792H267.659V170H258.443V151.424H238.427V170H229.211V125.792H238.427V143.36H258.443V125.792Z"
    fill="black"
  />
<g clip-path="url(#clip0_0_1)">
<path
      d="M182.178 0L152.456 20.1724L149.353 0.596817L111.992 39.3899L97.6684 26.9761L103.398 75.4377L88 90L160.931 82.5995L178.836 22.5597L167.615 27.5729L182.178 0ZM139.804 39.748C138.371 39.748 137.178 38.5544 137.178 37.122C137.178 35.6897 138.371 34.496 139.804 34.496C141.236 34.496 142.549 35.6897 142.549 37.122C142.549 38.5544 141.355 39.748 139.804 39.748ZM148.279 39.748C146.846 39.748 145.653 38.5544 145.653 37.122C145.653 35.6897 146.846 34.496 148.279 34.496C149.711 34.496 150.905 35.6897 150.905 37.122C150.905 38.5544 149.711 39.748 148.279 39.748Z"
      fill="black"
    />
<path
      d="M129.3 40.7029C133.477 43.4482 138.491 45.1193 143.981 45.1193C149.472 45.1193 154.485 43.4482 158.663 40.7029"
      stroke="#BCD0FA"
      stroke-width="1.5"
      stroke-miterlimit="10"
      stroke-linecap="round"
    />
<path
      d="M130.613 39.3899L128.225 41.6578"
      stroke="#BCD0FA"
      stroke-width="1.5"
      stroke-miterlimit="10"
      stroke-linecap="round"
    />
<path
      d="M159.737 41.6578L157.35 39.3899"
      stroke="#BCD0FA"
      stroke-width="1.5"
      stroke-miterlimit="10"
      stroke-linecap="round"
    />
</g>
<defs>
<clipPath id="clip0_0_1">
<rect width="94.1777" height="90" fill="white" transform="translate(88)" />
</clipPath>
</defs>
</svg>
